<?xml version="1.0" encoding="utf-8"?>
<!-- Generator: Adobe Illustrator 16.0.0, SVG Export Plug-In . SVG Version: 6.00 Build 0)  -->
<!DOCTYPE svg PUBLIC "-//W3C//DTD SVG 1.0//EN" "http://www.w3.org/TR/2001/REC-SVG-20010904/DTD/svg10.dtd">
<svg version="1.0" id="Layer_1" xmlns="http://www.w3.org/2000/svg" xmlns:xlink="http://www.w3.org/1999/xlink" x="0px" y="0px"
	 width="7.997px" height="8.002px" viewBox="0 0 7.997 8.002" enable-background="new 0 0 7.997 8.002" xml:space="preserve">
<g>
	<g>
		<path fill="#fff" d="M0,4.001l3.047,0.952V3.049L0,4.001z M3.999,0L3.047,3.049H4.95L3.999,0z M3.999,8.002L4.95,4.953H3.047L3.999,8.002z
			 M4.95,3.049v1.904l3.047-0.952L4.95,3.049z M2.647,2.65L2.75,2.321L1.524,1.527l0.794,1.226L2.647,2.65z M5.68,2.753l0.794-1.226
			L5.247,2.321L5.349,2.65L5.68,2.753z M5.349,5.352L5.247,5.683l1.227,0.793L5.679,5.249L5.349,5.352z M2.318,5.249L1.524,6.476
			L2.75,5.684L2.647,5.352L2.318,5.249z"/>
	</g>
</g>
</svg>
